<svg width="22" height="22" viewBox="0 0 22 22" fill="none" xmlns="http://www.w3.org/2000/svg">
<path d="M6.67377 8C6.67377 7.58579 6.33798 7.25 5.92377 7.25C5.50955 7.25 5.17377 7.58579 5.17377 8V17C5.17377 17.4142 5.50955 17.75 5.92377 17.75C6.33798 17.75 6.67377 17.4142 6.67377 17V8Z" fill="#8A8A8A"/>
<path d="M10.9238 4.25C11.338 4.25 11.6738 4.58579 11.6738 5V17C11.6738 17.4142 11.338 17.75 10.9238 17.75C10.5096 17.75 10.1738 17.4142 10.1738 17V5C10.1738 4.58579 10.5096 4.25 10.9238 4.25Z" fill="#8A8A8A"/>
<path d="M16.6738 12C16.6738 11.5858 16.338 11.25 15.9238 11.25C15.5096 11.25 15.1738 11.5858 15.1738 12V17C15.1738 17.4142 15.5096 17.75 15.9238 17.75C16.338 17.75 16.6738 17.4142 16.6738 17V12Z" fill="#8A8A8A"/>
<path fill-rule="evenodd" clip-rule="evenodd" d="M10.8664 0.25C8.558 0.249987 6.74896 0.249977 5.33747 0.439747C3.89274 0.633986 2.75271 1.03933 1.8579 1.93414C0.963094 2.82895 0.557753 3.96897 0.363514 5.41371C0.173744 6.82519 0.173754 8.63423 0.173767 10.9426V11.0574C0.173754 13.3658 0.173744 15.1748 0.363514 16.5863C0.557753 18.031 0.963094 19.1711 1.8579 20.0659C2.75271 20.9607 3.89274 21.366 5.33747 21.5603C6.74896 21.75 8.558 21.75 10.8664 21.75H10.9811C13.2895 21.75 15.0986 21.75 16.5101 21.5603C17.9548 21.366 19.0948 20.9607 19.9896 20.0659C20.8844 19.1711 21.2898 18.031 21.484 16.5863C21.6738 15.1748 21.6738 13.3658 21.6738 11.0574V10.9426C21.6738 8.63423 21.6738 6.82519 21.484 5.41371C21.2898 3.96897 20.8844 2.82895 19.9896 1.93414C19.0948 1.03933 17.9548 0.633986 16.5101 0.439747C15.0986 0.249977 13.2895 0.249987 10.9811 0.25H10.8664ZM2.91856 2.9948C3.48822 2.42514 4.25894 2.09825 5.53734 1.92637C6.83732 1.75159 8.54554 1.75 10.9238 1.75C13.302 1.75 15.0102 1.75159 16.3102 1.92637C17.5886 2.09825 18.3593 2.42514 18.929 2.9948C19.4986 3.56445 19.8255 4.33517 19.9974 5.61358C20.1722 6.91356 20.1738 8.62178 20.1738 11C20.1738 13.3782 20.1722 15.0864 19.9974 16.3864C19.8255 17.6648 19.4986 18.4355 18.929 19.0052C18.3593 19.5749 17.5886 19.9018 16.3102 20.0736C15.0102 20.2484 13.302 20.25 10.9238 20.25C8.54554 20.25 6.83732 20.2484 5.53734 20.0736C4.25894 19.9018 3.48822 19.5749 2.91856 19.0052C2.34891 18.4355 2.02201 17.6648 1.85014 16.3864C1.67536 15.0864 1.67377 13.3782 1.67377 11C1.67377 8.62178 1.67536 6.91356 1.85014 5.61358C2.02201 4.33517 2.34891 3.56445 2.91856 2.9948Z" fill="#8A8A8A"/>
</svg>
