<svg width="21" height="24" viewBox="0 0 21 24" fill="none" xmlns="http://www.w3.org/2000/svg">
<path d="M9.01447 1.43392C8.90738 1.63524 8.81743 1.81514 8.81743 1.82371C8.81743 1.83656 8.92452 1.96078 9.05302 2.10213C9.61843 2.71038 9.93112 3.7641 9.93112 5.04913C9.93112 5.46034 9.82404 6.66827 9.78549 6.70682C9.77692 6.71539 9.59273 6.634 9.36999 6.5312C8.50902 6.12428 7.72944 5.97436 6.63288 6.00434C5.44209 6.03861 4.6625 6.21851 3.69016 6.67684C1.28287 7.81623 0.0877962 10.2364 0.37907 13.3804C0.696044 16.7686 2.42655 20.4438 4.46975 22.0801C4.88524 22.4142 5.63484 22.7954 6.09317 22.911C6.76138 23.0781 7.81939 23.0053 8.68893 22.7311C9.04874 22.6198 9.7298 22.3114 10.0082 22.1357C10.0896 22.0843 10.1153 22.0843 10.201 22.1357C10.7621 22.4913 11.683 22.8254 12.3812 22.9367C12.9852 23.0353 13.8676 23.001 14.2788 22.8725C14.6729 22.744 15.1869 22.487 15.5381 22.2385C15.9194 21.9687 16.7461 21.1334 17.0887 20.6751C18.8107 18.3535 19.9544 14.8239 19.8558 12.1168C19.8216 11.1573 19.6802 10.4591 19.359 9.65382C18.4509 7.38789 16.1678 5.99578 13.3579 5.99149C12.4926 5.99149 11.6488 6.15854 10.9891 6.45839L10.7193 6.57832L10.7493 6.35987C10.7664 6.23993 10.7964 5.8587 10.8135 5.51603L10.8435 4.89493L11.2547 5.01058C13.0537 5.51175 14.7029 5.35754 16.0564 4.55226C16.9131 4.04253 17.8555 3.15586 18.3224 2.41911C18.5708 2.02075 18.4851 1.78088 18.014 1.58812C17.5728 1.40393 16.8574 1.2069 16.3391 1.1298C15.7652 1.04413 14.7628 1.04413 14.2745 1.1298C13.1437 1.33112 12.1328 1.87939 11.1433 2.84317L10.655 3.31434L10.5865 3.07876C10.4708 2.68468 10.2524 2.20065 10.0425 1.88796C9.8583 1.60954 9.33144 1.06554 9.24577 1.06554C9.22864 1.06554 9.12155 1.2326 9.01447 1.43392ZM16.0993 2.0079C16.2535 2.0336 16.5833 2.10213 16.836 2.16639L17.2943 2.27776L17.0288 2.57331C16.7075 2.9374 16.1806 3.38716 15.7652 3.65702C14.6043 4.40234 13.3365 4.58224 11.8115 4.20958C11.576 4.1539 11.3532 4.08965 11.319 4.07251C11.2376 4.02968 11.6745 3.54993 12.1628 3.14301C12.8567 2.56474 13.5592 2.20494 14.2959 2.05073C14.7157 1.96078 15.6538 1.93936 16.0993 2.0079ZM7.6866 6.95526C8.37624 7.0752 9.05302 7.34505 9.6784 7.7477C10.0296 7.97472 10.1753 7.97472 10.5265 7.7477C11.8587 6.88673 13.3493 6.67256 15.0498 7.10518C16.9602 7.58921 18.3052 8.93421 18.7764 10.8275C18.9349 11.47 18.9863 12.0054 18.9563 12.755C18.8235 16.0361 17.0545 19.9726 15.0541 21.4547C14.433 21.9087 13.8933 22.1058 13.2465 22.1058C12.3298 22.1058 11.4089 21.8231 10.5951 21.2919C10.1838 21.0178 10.0211 21.0178 9.60987 21.2919C8.74461 21.8573 7.83224 22.1229 6.86847 22.0886C6.42299 22.0715 6.31162 22.0501 6.02463 21.9387C5.3864 21.686 4.7139 21.1634 4.13564 20.4738C2.76066 18.8332 1.73692 16.366 1.31286 13.6802C1.23147 13.1448 1.24004 11.7099 1.33427 11.2173C1.60841 9.75234 2.38372 8.55298 3.53596 7.80338C4.19561 7.37504 5.11226 7.04521 5.9561 6.94241C6.46154 6.87816 7.27111 6.88673 7.6866 6.95526Z" fill="#8A8A8A" stroke="#8A8A8A" stroke-width="0.444412"/>
</svg>
