<svg width="24" height="24" viewBox="0 0 24 24" fill="none" xmlns="http://www.w3.org/2000/svg">
<path d="M8.65116 17.8605C8.18879 17.8605 7.81395 18.2353 7.81395 18.6977C7.81395 19.1601 8.18879 19.5349 8.65116 19.5349H15.3488C15.8112 19.5349 16.186 19.1601 16.186 18.6977C16.186 18.2353 15.8112 17.8605 15.3488 17.8605H8.65116Z" fill="#8A8A8A"/>
<path fill-rule="evenodd" clip-rule="evenodd" d="M12 0C11.2095 0 10.4914 0.226403 9.71225 0.605291C8.95909 0.971548 8.08903 1.51154 7.00226 2.18603L4.69539 3.61775C3.66707 4.25594 2.84366 4.76696 2.209 5.253C1.55179 5.75631 1.04701 6.2689 0.682393 6.93503C0.318535 7.59977 0.15468 8.30706 0.076119 9.14311C-1.59219e-05 9.95335 -8.67434e-06 10.9441 2.9828e-07 12.1867V13.9868C-1.53279e-05 16.1121 -2.76268e-05 17.7897 0.17046 19.1013C0.345346 20.4468 0.712814 21.5331 1.5431 22.3919C2.37721 23.2547 3.43865 23.6402 4.75268 23.8229C6.02622 24 7.65272 24 9.70253 24H14.2974C16.3472 24 17.9738 24 19.2473 23.8229C20.5613 23.6402 21.6228 23.2547 22.4569 22.3919C23.2872 21.5331 23.6547 20.4468 23.8295 19.1013C24 17.7897 24 16.1121 24 13.9868V12.1867C24 10.9442 24 9.95333 23.9239 9.14311C23.8453 8.30706 23.6815 7.59977 23.3176 6.93503C22.953 6.2689 22.4482 5.75631 21.791 5.25299C21.1563 4.76696 20.3329 4.25595 19.3046 3.61776L16.9977 2.18603C15.911 1.51154 15.0409 0.971545 14.2878 0.605291C13.5086 0.226403 12.7905 0 12 0ZM7.84691 3.6325C8.98079 2.92879 9.77805 2.4352 10.4445 2.1111C11.0938 1.79534 11.5537 1.67442 12 1.67442C12.4463 1.67442 12.9062 1.79534 13.5555 2.1111C14.222 2.4352 15.0192 2.92879 16.1531 3.6325L18.3856 5.01809C19.4582 5.68375 20.2112 6.1522 20.7729 6.58236C21.3194 7.0009 21.6339 7.3463 21.8488 7.739C22.0645 8.13309 22.1905 8.59384 22.2568 9.29976C22.3247 10.0226 22.3256 10.9349 22.3256 12.2276V13.9255C22.3256 16.1257 22.3239 17.6943 22.1691 18.8855C22.017 20.0554 21.7306 20.7342 21.2531 21.2281C20.7794 21.7181 20.1345 22.009 19.0167 22.1645C17.8718 22.3237 16.3619 22.3256 14.2326 22.3256H9.76744C7.63811 22.3256 6.12818 22.3237 4.98332 22.1645C3.86552 22.009 3.22062 21.7181 2.74693 21.2281C2.26941 20.7342 1.98297 20.0554 1.83091 18.8855C1.67608 17.6943 1.67442 16.1257 1.67442 13.9255V12.2276C1.67442 10.9349 1.67527 10.0226 1.74319 9.29976C1.80953 8.59384 1.93546 8.13309 2.15117 7.739C2.36613 7.3463 2.68055 7.0009 3.22707 6.58236C3.78876 6.1522 4.5418 5.68375 5.61436 5.01809L7.84691 3.6325Z" fill="#8A8A8A"/>
</svg>
