<svg width="24" height="25" viewBox="0 0 24 25" fill="none" xmlns="http://www.w3.org/2000/svg">
<path d="M12 18.0527C12.4142 18.0527 12.75 17.7169 12.75 17.3027V11.3027C12.75 10.8885 12.4142 10.5527 12 10.5527C11.5858 10.5527 11.25 10.8885 11.25 11.3027V17.3027C11.25 17.7169 11.5858 18.0527 12 18.0527Z" fill="#2F2F2F"/>
<path d="M12 7.30273C12.5523 7.30273 13 7.75045 13 8.30273C13 8.85502 12.5523 9.30273 12 9.30273C11.4477 9.30273 11 8.85502 11 8.30273C11 7.75045 11.4477 7.30273 12 7.30273Z" fill="#2F2F2F"/>
<path fill-rule="evenodd" clip-rule="evenodd" d="M1.25 12.3027C1.25 6.36567 6.06294 1.55273 12 1.55273C17.9371 1.55273 22.75 6.36567 22.75 12.3027C22.75 18.2398 17.9371 23.0527 12 23.0527C6.06294 23.0527 1.25 18.2398 1.25 12.3027ZM12 3.05273C6.89137 3.05273 2.75 7.1941 2.75 12.3027C2.75 17.4114 6.89137 21.5527 12 21.5527C17.1086 21.5527 21.25 17.4114 21.25 12.3027C21.25 7.1941 17.1086 3.05273 12 3.05273Z" fill="#2F2F2F"/>
</svg>
