<svg width="24" height="24" viewBox="0 0 24 24" fill="none" xmlns="http://www.w3.org/2000/svg">
<path d="M21.7725 18.7033C21.4062 19.5418 20.9727 20.3136 20.4704 21.0232C19.7857 21.9906 19.2251 22.6602 18.7931 23.032C18.1233 23.6424 17.4058 23.955 16.6374 23.9728C16.0857 23.9728 15.4205 23.8172 14.6461 23.5017C13.8692 23.1876 13.1552 23.032 12.5024 23.032C11.8177 23.032 11.0834 23.1876 10.2979 23.5017C9.51127 23.8172 8.87756 23.9816 8.39305 23.9979C7.65619 24.0291 6.92173 23.7076 6.1886 23.032C5.72069 22.6276 5.13542 21.9343 4.43429 20.9521C3.68203 19.9033 3.06358 18.687 2.57906 17.3004C2.06017 15.8026 1.80005 14.3523 1.80005 12.9482C1.80005 11.3398 2.15076 9.95259 2.85324 8.79011C3.40532 7.85636 4.13979 7.11979 5.05903 6.57906C5.97827 6.03834 6.97151 5.76279 8.04114 5.74516C8.62641 5.74516 9.39391 5.92456 10.3477 6.27715C11.2988 6.63091 11.9095 6.81032 12.1772 6.81032C12.3774 6.81032 13.0558 6.60054 14.2058 6.18233C15.2934 5.79449 16.2113 5.63391 16.9633 5.69716C19.0009 5.86012 20.5317 6.6561 21.5497 8.09013C19.7274 9.18432 18.826 10.7169 18.8439 12.6829C18.8603 14.2142 19.4209 15.4886 20.5227 16.5004C21.022 16.97 21.5796 17.333 22.2001 17.5907C22.0655 17.9774 21.9235 18.3477 21.7725 18.7033ZM17.0993 0.480137C17.0993 1.68041 16.6568 2.8011 15.7748 3.8384C14.7104 5.07155 13.4229 5.78412 12.0268 5.67168C12.009 5.52769 11.9987 5.37614 11.9987 5.21688C11.9987 4.06462 12.5049 2.83147 13.4038 1.82321C13.8526 1.3127 14.4234 0.888228 15.1155 0.549615C15.8062 0.216055 16.4595 0.031589 17.0739 0C17.0918 0.160458 17.0993 0.320926 17.0993 0.480121V0.480137Z" fill="#33384B"/>
</svg>
