<svg width="24" height="25" viewBox="0 0 24 25" fill="none" xmlns="http://www.w3.org/2000/svg">
<path d="M9.05466 1.55273C10.4222 1.55271 11.5246 1.5527 12.3915 1.66926C13.2916 1.79028 14.0495 2.04917 14.6514 2.65109C15.1764 3.17602 15.4416 3.82109 15.5808 4.57909C15.7161 5.31565 15.742 6.21703 15.748 7.29856C15.7503 7.71277 15.4164 8.05042 15.0022 8.05272C14.588 8.05503 14.2504 7.72112 14.2481 7.30691C14.242 6.21341 14.2136 5.43833 14.1055 4.85008C14.0014 4.28327 13.8342 3.9552 13.5908 3.71175C13.314 3.43498 12.9254 3.25454 12.1917 3.15588C11.4363 3.05433 10.4352 3.05274 8.99978 3.05274H7.99978C6.56437 3.05274 5.56326 3.05433 4.8079 3.15588C4.07413 3.25454 3.68556 3.43498 3.40879 3.71175C3.13203 3.98851 2.95158 4.37708 2.85293 5.11086C2.75138 5.86621 2.74978 6.86732 2.74978 8.30274V16.3027C2.74978 17.7382 2.75138 18.7393 2.85293 19.4946C2.95158 20.2284 3.13203 20.617 3.40879 20.8937C3.68556 21.1705 4.07413 21.3509 4.8079 21.4496C5.56326 21.5511 6.56437 21.5527 7.99978 21.5527H8.99979C10.4352 21.5527 11.4363 21.5511 12.1917 21.4496C12.9254 21.3509 13.314 21.1705 13.5908 20.8937C13.8342 20.6503 14.0014 20.3222 14.1055 19.7554C14.2136 19.1671 14.242 18.3921 14.2481 17.2986C14.2504 16.8844 14.588 16.5504 15.0022 16.5527C15.4164 16.5551 15.7503 16.8927 15.748 17.3069C15.742 18.3884 15.7161 19.2898 15.5808 20.0264C15.4416 20.7844 15.1764 21.4295 14.6514 21.9544C14.0495 22.5563 13.2916 22.8152 12.3915 22.9362C11.5246 23.0528 10.4222 23.0528 9.05466 23.0527H7.94491C6.57732 23.0528 5.475 23.0528 4.60803 22.9362C3.70792 22.8152 2.95005 22.5563 2.34813 21.9544C1.74622 21.3525 1.48732 20.5946 1.36631 19.6945C1.24975 18.8275 1.24976 17.7252 1.24978 16.3576V8.24787C1.24976 6.88027 1.24975 5.77795 1.36631 4.91098C1.48732 4.01088 1.74622 3.253 2.34813 2.65109C2.95005 2.04917 3.70792 1.79028 4.60803 1.66926C5.475 1.5527 6.57731 1.55271 7.9449 1.55273H9.05466Z" fill="#2F2F2F"/>
<path d="M9 11.5527C8.58579 11.5527 8.25 11.8885 8.25 12.3027C8.25 12.717 8.58579 13.0527 9 13.0527H19.9726L18.0119 14.7333C17.6974 15.0029 17.661 15.4763 17.9306 15.7908C18.2001 16.1053 18.6736 16.1417 18.9881 15.8722L22.4881 12.8722C22.6543 12.7297 22.75 12.5217 22.75 12.3027C22.75 12.0838 22.6543 11.8758 22.4881 11.7333L18.9881 8.73329C18.6736 8.46373 18.2001 8.50015 17.9306 8.81464C17.661 9.12914 17.6974 9.60261 18.0119 9.87218L19.9726 11.5527H9Z" fill="#2F2F2F"/>
</svg>
