<svg width="18" height="18" viewBox="0 0 18 18" fill="none" xmlns="http://www.w3.org/2000/svg">
<path fill-rule="evenodd" clip-rule="evenodd" d="M2.00747 1.40686C3.68754 -0.27321 6.52269 -0.145492 7.6925 1.95063L8.34151 3.11356C9.10543 4.48238 8.77989 6.20946 7.66159 7.34143C7.6467 7.36184 7.56776 7.47677 7.55793 7.67758C7.54538 7.93391 7.63642 8.52668 8.55484 9.44511C9.47297 10.3632 10.0657 10.4545 10.3221 10.442C10.5231 10.4322 10.6381 10.3533 10.6585 10.3383C11.7905 9.22006 13.5176 8.89452 14.8864 9.65844L16.0493 10.3075C18.1454 11.4773 18.2732 14.3124 16.5931 15.9925C15.6944 16.8911 14.4995 17.6896 13.0953 17.7429C11.0144 17.8218 7.55915 17.2844 4.13737 13.8626C0.715586 10.4408 0.1782 6.98556 0.257087 4.90463C0.31032 3.50044 1.10881 2.30552 2.00747 1.40686ZM6.38267 2.68163C5.78366 1.60828 4.17396 1.36169 3.06813 2.46752C2.29279 3.24287 1.78872 4.09868 1.75601 4.96146C1.69022 6.6968 2.11866 9.72256 5.19803 12.8019C8.2774 15.8813 11.3032 16.3097 13.0385 16.2439C13.9013 16.2112 14.7571 15.7072 15.5324 14.9318C16.6383 13.826 16.3917 12.2163 15.3183 11.6173L14.1554 10.9683C13.432 10.5645 12.4159 10.7023 11.7026 11.4156L11.7023 11.4158C11.6323 11.4858 11.1864 11.9018 10.395 11.9403C9.58476 11.9797 8.60402 11.6156 7.49418 10.5058C6.38397 9.39556 6.02005 8.41456 6.05972 7.60423C6.09848 6.81271 6.5147 6.36711 6.58435 6.29746L6.58438 6.29743C7.29769 5.58411 7.43541 4.56797 7.03169 3.84456L6.38267 2.68163Z" fill="#C5C6C7"/>
</svg>
