<svg width="17" height="21" viewBox="0 0 17 21" fill="none" xmlns="http://www.w3.org/2000/svg">
<path fill-rule="evenodd" clip-rule="evenodd" d="M8.65039 0.25C6.02704 0.25 3.90039 2.37665 3.90039 5C3.90039 7.62335 6.02704 9.75 8.65039 9.75C11.2737 9.75 13.4004 7.62335 13.4004 5C13.4004 2.37665 11.2737 0.25 8.65039 0.25ZM5.40039 5C5.40039 3.20507 6.85547 1.75 8.65039 1.75C10.4453 1.75 11.9004 3.20507 11.9004 5C11.9004 6.79493 10.4453 8.25 8.65039 8.25C6.85547 8.25 5.40039 6.79493 5.40039 5Z" fill="#8A8A8A"/>
<path fill-rule="evenodd" clip-rule="evenodd" d="M8.65039 11.25C6.61106 11.25 4.72791 11.7208 3.32854 12.5204C1.95039 13.3079 0.900391 14.5101 0.900391 16C0.900391 17.4899 1.95039 18.6921 3.32854 19.4796C4.72791 20.2793 6.61106 20.75 8.65039 20.75C10.6897 20.75 12.5729 20.2793 13.9722 19.4796C15.3504 18.6921 16.4004 17.4899 16.4004 16C16.4004 14.5101 15.3504 13.3079 13.9722 12.5204C12.5729 11.7208 10.6897 11.25 8.65039 11.25ZM2.40039 16C2.40039 15.2807 2.9174 14.483 4.07275 13.8228C5.20688 13.1747 6.82373 12.75 8.65039 12.75C10.477 12.75 12.0939 13.1747 13.228 13.8228C14.3834 14.483 14.9004 15.2807 14.9004 16C14.9004 16.7193 14.3834 17.517 13.228 18.1772C12.0939 18.8253 10.477 19.25 8.65039 19.25C6.82373 19.25 5.20688 18.8253 4.07275 18.1772C2.9174 17.517 2.40039 16.7193 2.40039 16Z" fill="#8A8A8A"/>
</svg>
